<svg width="31" height="31" viewBox="0 0 31 31" fill="none" xmlns="http://www.w3.org/2000/svg">
<path d="M31 15.4665C30.9936 12.5061 30.1395 9.60933 28.5387 7.11896C26.938 4.62858 24.6575 2.64872 21.967 1.41354C19.2765 0.178362 16.2885 -0.26047 13.3565 0.148942C10.4244 0.558353 7.67098 1.79888 5.42174 3.72382C3.1725 5.64875 1.52158 8.17757 0.664221 11.0112C-0.193141 13.8448 -0.221073 16.8647 0.583728 19.7137C1.38853 22.5627 2.9924 25.1216 5.20565 27.0878C7.41889 29.054 10.1489 30.3452 13.0729 30.8088V19.9702H9.13875V15.4665H13.0729V12.0493C13.0729 8.16776 15.3861 6.02107 18.9259 6.02107C20.1001 6.03684 21.2716 6.13934 22.4307 6.32774V10.1392H20.4418C20.1092 10.096 19.7712 10.128 19.4527 10.2327C19.1341 10.3374 18.8431 10.5121 18.601 10.7442C18.3589 10.9762 18.1719 11.2595 18.0537 11.5733C17.9356 11.8871 17.8893 12.2235 17.9183 12.5575V15.4665H22.2204L21.537 19.9439H17.9183V30.8088C21.5695 30.2303 24.894 28.3666 27.2925 25.5536C29.691 22.7405 31.0058 19.1633 31 15.4665Z" fill="#337FFF"/>
<path d="M21.5284 19.9702L22.2119 15.4665H17.9185V12.5838C17.8895 12.2498 17.9358 11.9134 18.0539 11.5996C18.1721 11.2858 18.3591 11.0025 18.6012 10.7704C18.8433 10.5384 19.1343 10.3637 19.4529 10.259C19.7714 10.1543 20.1094 10.1223 20.442 10.1655H22.3959V6.35403C21.2368 6.16563 20.0653 6.06313 18.8911 6.04736C15.3863 6.04736 13.038 8.19406 13.038 12.0756V15.4665H9.13895V19.9439H13.0731V30.8088C14.6784 31.0601 16.3131 31.0601 17.9185 30.8088V19.9702H21.5284Z" fill="white"/>
<circle cx="15.5" cy="15.5" r="14.5" stroke="white" stroke-width="2"/>
</svg>
