<svg width="138" height="37" viewBox="0 0 138 37" fill="none" xmlns="http://www.w3.org/2000/svg">
<path d="M48.8032 14.9501L37.1397 3.28654C35.7227 1.86958 33.6227 1.56511 31.9012 2.36142C32.3853 2.58391 32.8381 2.88838 33.2362 3.28654L44.9037 14.954C46.7188 16.7691 46.7188 19.7084 44.9037 21.5235L33.2362 33.1909C32.8381 33.5891 32.3853 33.8935 31.9012 34.116C33.6188 34.9123 35.7227 34.6079 37.1397 33.1909L48.8071 21.5235C50.6222 19.7084 50.6222 16.7691 48.8071 14.954L48.8032 14.9501Z" fill="#B5C5FD"/>
<path d="M40.9963 14.9501L29.3327 3.28654C27.9158 1.86958 25.8157 1.56511 24.0943 2.36142C24.5783 2.58391 25.0311 2.88838 25.4293 3.28654L37.0967 14.954C38.9118 16.7691 38.9118 19.7084 37.0967 21.5235L25.4293 33.1909C25.0311 33.5891 24.5783 33.8935 24.0943 34.116C25.8118 34.9123 27.9158 34.6079 29.3327 33.1909L41.0002 21.5235C42.8153 19.7084 42.8153 16.7691 41.0002 14.954L40.9963 14.9501Z" fill="#91CF0D"/>
<path d="M14.9518 3.28479L3.28459 14.952C1.47056 16.766 1.47056 19.7071 3.28459 21.5212L14.9518 33.1884C16.7658 35.0024 19.7069 35.0024 21.521 33.1884L33.1882 21.5212C35.0022 19.7071 35.0022 16.766 33.1882 14.952L21.521 3.28479C19.7069 1.47076 16.7658 1.47076 14.9518 3.28479Z" fill="#413EC7"/>
<path d="M58.9668 4.9491H56.9409V15.8554H58.9668V4.9491Z" fill="white"/>
<path d="M59.3259 4.0628H60.9302L58.8418 1.92371H57.0658L54.9813 4.0628H56.5856L57.9558 2.90347L59.3259 4.0628Z" fill="white"/>
<path d="M73.6906 11.3391V15.8593H75.6384V11.0932C75.6384 10.2501 75.494 9.56306 75.2013 9.02829C74.9085 8.49351 74.5064 8.09536 73.9951 7.83773C73.4798 7.5762 72.8904 7.44739 72.2268 7.44739C71.4071 7.44739 70.685 7.63475 70.0604 8.00949C69.674 8.23979 69.3617 8.52865 69.1119 8.85654C68.9128 8.52084 68.6591 8.23979 68.339 8.0251C67.7613 7.64256 67.086 7.44739 66.3053 7.44739C65.6183 7.44739 65.0093 7.58791 64.4746 7.86896C64.1154 8.05633 63.8227 8.30615 63.5768 8.61062V7.54107H61.7226V15.8593H63.6704V11.6358C63.6704 11.0737 63.7602 10.6131 63.9437 10.2501C64.1272 9.88705 64.3809 9.6099 64.7088 9.42254C65.0367 9.23517 65.4114 9.14149 65.8369 9.14149C66.438 9.14149 66.9025 9.32495 67.2226 9.68797C67.5427 10.051 67.7066 10.6014 67.7066 11.3391V15.8593H69.6544V11.6358C69.6544 11.0737 69.7442 10.6131 69.9277 10.2501C70.1112 9.88705 70.3649 9.6099 70.6928 9.42254C71.0207 9.23517 71.3954 9.14149 71.8209 9.14149C72.422 9.14149 72.8865 9.32495 73.2066 9.68797C73.5267 10.051 73.6906 10.6014 73.6906 11.3391Z" fill="white"/>
<path d="M86.4119 9.45364C86.045 8.82128 85.5454 8.32554 84.9169 7.97423C84.2884 7.62292 83.5624 7.44336 82.7427 7.44336C82.0361 7.44336 81.4077 7.59559 80.8573 7.90397C80.5216 8.09133 80.2327 8.34506 79.9829 8.64953V7.53704H78.1288V18.8805H80.0766V14.8287C80.3147 15.1019 80.5841 15.3283 80.8963 15.5001C81.4506 15.8124 82.0674 15.9685 82.7427 15.9685C83.5624 15.9685 84.2884 15.7928 84.9169 15.4376C85.5454 15.0863 86.045 14.5906 86.4119 13.9504C86.7788 13.3103 86.9662 12.5608 86.9662 11.6981C86.9662 10.8355 86.7827 10.0899 86.4119 9.45364ZM84.6593 13.0839C84.4407 13.4781 84.1479 13.7787 83.781 13.9855C83.4102 14.1924 82.9925 14.2978 82.528 14.2978C82.0635 14.2978 81.638 14.1924 81.2672 13.9855C80.8924 13.7787 80.5958 13.4781 80.3811 13.0839C80.1625 12.6896 80.0532 12.2251 80.0532 11.6981C80.0532 11.1712 80.1625 10.691 80.3811 10.3046C80.5997 9.91425 80.8963 9.61758 81.2672 9.4068C81.6419 9.19991 82.0635 9.09452 82.528 9.09452C82.9925 9.09452 83.4141 9.19991 83.781 9.4068C84.1479 9.61368 84.4446 9.91425 84.6593 10.3046C84.8779 10.6949 84.9872 11.1594 84.9872 11.6981C84.9872 12.2368 84.8779 12.6896 84.6593 13.0839Z" fill="white"/>
<path d="M90.7682 11.8193C90.7682 10.9683 90.9868 10.3242 91.424 9.89485C91.8612 9.46547 92.4467 9.24688 93.1845 9.24688C93.2586 9.24688 93.3289 9.24688 93.4031 9.25468C93.4772 9.25859 93.5553 9.2742 93.6373 9.29372V7.43958C92.8371 7.43958 92.1696 7.584 91.6348 7.87676C91.2366 8.09536 90.9166 8.38811 90.6745 8.75504V7.53716H88.8204V15.8554H90.7682V11.8193Z" fill="white"/>
<path d="M101.472 11.7413C101.472 12.2916 101.374 12.7522 101.183 13.127C100.991 13.5017 100.726 13.7828 100.386 13.9701C100.047 14.1575 99.6525 14.2512 99.1958 14.2512C98.5713 14.2512 98.0911 14.0677 97.7554 13.6969C97.4197 13.33 97.248 12.7679 97.248 12.0223V7.53333H95.3002V12.2838C95.3002 13.1153 95.4524 13.8023 95.753 14.3488C96.0535 14.8952 96.4751 15.2973 97.0138 15.5627C97.5525 15.8282 98.177 15.9609 98.8835 15.9609C99.5276 15.9609 100.121 15.8165 100.66 15.5315C101.019 15.3402 101.319 15.0865 101.565 14.782V15.8516H103.419V7.53723H101.472V11.7452V11.7413Z" fill="white"/>
<path d="M118.245 7.8337C117.729 7.57217 117.14 7.44336 116.476 7.44336C115.657 7.44336 114.935 7.63073 114.31 8.00546C113.924 8.23576 113.611 8.52462 113.361 8.85251C113.162 8.51681 112.909 8.23576 112.589 8.02107C112.011 7.63853 111.336 7.44336 110.555 7.44336C109.868 7.44336 109.259 7.58388 108.724 7.86493C108.369 8.0523 108.072 8.30212 107.83 8.60659V7.54095H105.976V15.8592H107.924V11.6357C107.924 11.0736 108.014 10.613 108.197 10.2499C108.381 9.88692 108.634 9.60978 108.962 9.42241C109.29 9.23504 109.665 9.14136 110.09 9.14136C110.691 9.14136 111.156 9.32482 111.476 9.68785C111.796 10.0509 111.96 10.6013 111.96 11.339V15.8592H113.908V11.6357C113.908 11.0736 113.998 10.613 114.181 10.2499C114.361 9.88692 114.618 9.60978 114.946 9.42241C115.274 9.23504 115.649 9.14136 116.074 9.14136C116.675 9.14136 117.14 9.32482 117.46 9.68785C117.784 10.0509 117.944 10.6013 117.944 11.339V15.8592H119.892V11.0931C119.892 10.2499 119.747 9.56294 119.455 9.02816C119.162 8.49339 118.76 8.09524 118.249 7.83761L118.245 7.8337Z" fill="white"/>
<path d="M128.491 11.7413C128.491 12.2916 128.394 12.7522 128.202 13.127C128.011 13.5017 127.746 13.7828 127.406 13.9701C127.07 14.1575 126.672 14.2512 126.215 14.2512C125.591 14.2512 125.111 14.0677 124.775 13.6969C124.436 13.33 124.268 12.7679 124.268 12.0223V7.53333H122.32V12.2838C122.32 13.1153 122.472 13.8023 122.773 14.3488C123.073 14.8952 123.495 15.2973 124.033 15.5627C124.572 15.8282 125.197 15.9609 125.903 15.9609C126.547 15.9609 127.141 15.8165 127.679 15.5315C128.038 15.3402 128.339 15.0865 128.581 14.782V15.8516H130.435V7.53723H128.487V11.7452L128.491 11.7413Z" fill="white"/>
<path d="M137.45 14.017C137.157 14.2473 136.794 14.3605 136.361 14.3605C135.998 14.3605 135.713 14.2512 135.514 14.0326C135.311 13.814 135.209 13.5095 135.209 13.1114V9.15329H137.438V7.59581H135.209V5.69482H133.261V7.59581H131.891V9.15329H133.261V13.1582C133.261 14.0834 133.511 14.7821 134.011 15.2544C134.51 15.7267 135.217 15.9648 136.13 15.9648C136.482 15.9648 136.825 15.918 137.157 15.8243C137.489 15.7306 137.77 15.5901 138 15.4027L137.454 14.017H137.45Z" fill="white"/>
<path d="M58.6115 23.3149V22.097H56.7574V30.4152H58.7052V26.3791C58.7052 25.5281 58.9238 24.884 59.361 24.4547C59.7982 24.0253 60.3837 23.8067 61.1214 23.8067C61.1956 23.8067 61.2659 23.8067 61.34 23.8145C61.4142 23.8184 61.4923 23.834 61.5742 23.8535V21.9994C60.774 21.9994 60.1065 22.1438 59.5718 22.4366C59.1736 22.6552 58.8535 22.9479 58.6115 23.3149Z" fill="white"/>
<path d="M68.6044 22.866C67.9447 22.2882 67.0118 21.9994 65.8095 21.9994C65.1459 21.9994 64.5019 22.0853 63.8851 22.257C63.2684 22.4288 62.7336 22.6864 62.2886 23.0299L63.0537 24.4469C63.366 24.1892 63.7485 23.9862 64.1974 23.8379C64.6502 23.6935 65.1069 23.6193 65.5753 23.6193C66.2701 23.6193 66.7893 23.7794 67.1328 24.0955C67.4763 24.4117 67.6481 24.8567 67.6481 25.4266V25.5515H65.4972C64.6541 25.5515 63.9788 25.6608 63.4714 25.8794C62.9639 26.098 62.597 26.3947 62.3745 26.7694C62.152 27.1441 62.0388 27.5657 62.0388 28.0302C62.0388 28.4947 62.1676 28.9358 62.4213 29.3145C62.675 29.6931 63.0381 29.9898 63.5026 30.2045C63.971 30.4152 64.5136 30.5245 65.1381 30.5245C65.8759 30.5245 66.4848 30.3879 66.9689 30.1186C67.3046 29.9312 67.5622 29.6892 67.7573 29.3964V30.4152H69.5959V25.5398C69.5959 24.3337 69.2641 23.4437 68.6083 22.866H68.6044ZM66.8283 28.7797C66.4497 28.9983 66.0203 29.1076 65.5441 29.1076C65.0679 29.1076 64.6541 29.0022 64.377 28.7953C64.0959 28.5884 63.9554 28.3074 63.9554 27.9522C63.9554 27.6399 64.0686 27.3784 64.2989 27.1637C64.5253 26.9529 64.9742 26.8436 65.6378 26.8436H67.6481V27.8077C67.4802 28.2332 67.2109 28.5572 66.8283 28.7719V28.7797Z" fill="white"/>
<path d="M78.8744 22.5303C78.246 22.1789 77.5199 21.9994 76.7002 21.9994C75.9937 21.9994 75.3652 22.1516 74.8148 22.46C74.4791 22.6474 74.1903 22.9011 73.9405 23.2056V22.0931H72.0863V33.4365H74.0342V29.3847C74.2723 29.658 74.5416 29.8844 74.8539 30.0561C75.4082 30.3684 76.0249 30.5245 76.7002 30.5245C77.5199 30.5245 78.246 30.3489 78.8744 29.9937C79.5029 29.6424 80.0025 29.1466 80.3695 28.5064C80.7364 27.8663 80.9238 27.1168 80.9238 26.2542C80.9238 25.3915 80.7403 24.6459 80.3695 24.0097C80.0025 23.3773 79.5029 22.8816 78.8744 22.5303ZM78.6168 27.6399C78.3982 28.0341 78.1055 28.3347 77.7385 28.5416C77.3677 28.7485 76.95 28.8539 76.4855 28.8539C76.021 28.8539 75.5955 28.7485 75.2247 28.5416C74.85 28.3347 74.5533 28.0341 74.3386 27.6399C74.12 27.2456 74.0107 26.7811 74.0107 26.2542C74.0107 25.7272 74.12 25.2471 74.3386 24.8606C74.5572 24.4703 74.8539 24.1736 75.2247 23.9628C75.5994 23.7559 76.021 23.6506 76.4855 23.6506C76.95 23.6506 77.3716 23.7559 77.7385 23.9628C78.1055 24.1697 78.4021 24.4703 78.6168 24.8606C78.8354 25.251 78.9447 25.7155 78.9447 26.2542C78.9447 26.7928 78.8354 27.2456 78.6168 27.6399Z" fill="white"/>
<path d="M83.7576 18.3888C83.3946 18.3888 83.094 18.502 82.8637 18.7245C82.6295 18.947 82.5124 19.2241 82.5124 19.5598C82.5124 19.8955 82.6295 20.1571 82.8637 20.3874C83.0979 20.6177 83.3946 20.7309 83.7576 20.7309C84.1206 20.7309 84.4329 20.6138 84.6632 20.3796C84.8896 20.1453 85.0067 19.8565 85.0067 19.5169C85.0067 19.1929 84.8896 18.9275 84.6554 18.7128C84.4212 18.4981 84.1245 18.3927 83.7576 18.3927V18.3888Z" fill="white"/>
<path d="M84.7218 22.0968H82.774V30.4151H84.7218V22.0968Z" fill="white"/>
<path d="M93.4811 23.1274C93.2469 22.8581 92.9776 22.6317 92.6692 22.4638C92.1188 22.1594 91.4943 22.0032 90.7994 22.0032C89.9992 22.0032 89.281 22.1789 88.6408 22.5341C88.0007 22.8893 87.501 23.3812 87.138 24.0135C86.775 24.6459 86.5915 25.3953 86.5915 26.258C86.5915 27.1207 86.775 27.8662 87.138 28.5025C87.501 29.1349 88.0007 29.6306 88.6408 29.9897C89.281 30.3488 89.9992 30.5284 90.7994 30.5284C91.5177 30.5284 92.15 30.3722 92.7004 30.06C93.0322 29.8726 93.3133 29.6228 93.5592 29.3222V30.4191H95.4133V18.8571H93.4811V23.1274ZM93.1767 27.6437C92.9542 28.038 92.6575 28.3385 92.2867 28.5454C91.9197 28.7523 91.4982 28.8577 91.0337 28.8577C90.5691 28.8577 90.1476 28.7523 89.7807 28.5454C89.4137 28.3385 89.1171 28.038 88.8907 27.6437C88.6682 27.2495 88.555 26.785 88.555 26.258C88.555 25.731 88.6682 25.2509 88.8907 24.8645C89.1132 24.4741 89.4098 24.1775 89.7807 23.9667C90.1476 23.7598 90.5691 23.6544 91.0337 23.6544C91.4982 23.6544 91.9197 23.7598 92.2867 23.9667C92.6536 24.1736 92.9503 24.4741 93.1767 24.8645C93.3992 25.2548 93.5124 25.7193 93.5124 26.258C93.5124 26.7967 93.3992 27.2495 93.1767 27.6437Z" fill="white"/>
</svg>
