<svg width="230" height="230" viewBox="0 0 230 230" fill="none" xmlns="http://www.w3.org/2000/svg">
<rect width="230" height="230" rx="35" fill="white"/>
<path d="M89.6359 181.91L146.761 182.114C166.09 182.183 181.816 166.569 181.885 147.239L182.114 83.2395C182.183 63.9096 166.569 48.1837 147.239 48.1147L83.2394 47.8862C63.9096 47.8172 48.1837 63.4312 48.1147 82.761L47.934 133.372" stroke="#BCCAFC" stroke-width="22"/>
<rect x="69" y="69" width="92" height="92" rx="12" fill="#6362D0"/>
<path d="M102.881 131V125.42L114.671 114.395C115.511 113.615 116.126 112.925 116.516 112.325C116.936 111.725 117.206 111.185 117.326 110.705C117.476 110.195 117.551 109.73 117.551 109.31C117.551 108.29 117.206 107.495 116.516 106.925C115.856 106.355 114.851 106.07 113.501 106.07C112.361 106.07 111.296 106.325 110.306 106.835C109.316 107.345 108.506 108.11 107.876 109.13L101.261 105.44C102.431 103.46 104.126 101.87 106.346 100.67C108.566 99.47 111.221 98.87 114.311 98.87C116.741 98.87 118.871 99.26 120.701 100.04C122.531 100.82 123.956 101.93 124.976 103.37C126.026 104.81 126.551 106.505 126.551 108.455C126.551 109.475 126.416 110.495 126.146 111.515C125.876 112.505 125.351 113.57 124.571 114.71C123.821 115.82 122.696 117.065 121.196 118.445L111.836 127.085L110.351 123.935H127.406V131H102.881Z" fill="white"/>
</svg>
