<svg width="230" height="230" viewBox="0 0 230 230" fill="none" xmlns="http://www.w3.org/2000/svg">
<rect width="230" height="230" rx="35" fill="white"/>
<path d="M48.0917 89.6318L47.8842 146.756C47.814 166.086 63.427 181.813 82.7569 181.883L146.756 182.116C166.086 182.186 181.813 166.573 181.883 147.243L182.116 83.2436C182.186 63.9137 166.573 48.1869 147.243 48.1167L96.6324 47.9329" stroke="#C2CEFB" stroke-width="22"/>
<rect x="69" y="69" width="92" height="92" rx="12" fill="#5251CC"/>
<path d="M113.503 131.63C111.313 131.63 109.123 131.36 106.933 130.82C104.773 130.28 102.883 129.515 101.263 128.525L104.503 121.82C105.763 122.66 107.158 123.305 108.688 123.755C110.248 124.205 111.763 124.43 113.233 124.43C114.763 124.43 115.978 124.145 116.878 123.575C117.778 123.005 118.228 122.195 118.228 121.145C118.228 120.215 117.853 119.48 117.103 118.94C116.353 118.37 115.123 118.085 113.413 118.085H109.678V112.46L118.138 103.325L118.993 106.385H102.883V99.5H125.653V105.08L117.193 114.215L112.828 111.74H115.258C119.188 111.74 122.158 112.625 124.168 114.395C126.208 116.135 127.228 118.385 127.228 121.145C127.228 122.945 126.733 124.64 125.743 126.23C124.783 127.82 123.298 129.125 121.288 130.145C119.278 131.135 116.683 131.63 113.503 131.63Z" fill="white"/>
</svg>
