<svg width="25" height="21" viewBox="0 0 25 21" fill="none" xmlns="http://www.w3.org/2000/svg">
<path fill-rule="evenodd" clip-rule="evenodd" d="M24.7947 0.245325C24.5521 -0.0424092 24.121 -0.0819774 23.8288 0.152819L19.0121 4.02238C17.0534 3.03845 14.8333 2.48277 12.4825 2.48277C7.1861 2.48277 2.57278 5.29175 0.0947856 9.46089C-0.0315578 9.67346 -0.0315578 9.93688 0.0947855 10.1494C1.31852 12.2083 3.06295 13.9354 5.153 15.1563L0.254225 19.0918C-0.042201 19.3299 -0.0867859 19.7625 0.159482 20.0546C0.402051 20.3424 0.833163 20.3819 1.12543 20.1472L6.48308 15.843C8.30683 16.6674 10.3388 17.1276 12.4825 17.1276C17.7789 17.1276 22.3922 14.3186 24.8702 10.1494C24.9966 9.93688 24.9966 9.67346 24.8702 9.46089C23.7421 7.56277 22.1692 5.94681 20.2919 4.74947L24.7 1.20819C24.9964 0.970051 25.041 0.537447 24.7947 0.245325ZM6.30138 14.2337C4.33482 13.1865 2.67846 11.6553 1.49701 9.80517C3.78109 6.22842 7.84006 3.84377 12.4825 3.84377C14.3887 3.84377 16.1995 4.24764 17.8298 4.97219L15.8973 6.52465C15.0282 5.65995 13.8186 5.12463 12.4826 5.12463C9.8454 5.12463 7.69522 7.21334 7.69522 9.80512C7.69522 10.7846 8.00306 11.6936 8.52845 12.4446L6.30138 14.2337ZM16.7177 7.62085L19.161 5.65801C20.9095 6.69018 22.3881 8.11463 23.468 9.80519C21.1839 13.3819 17.125 15.7666 12.4825 15.7666C10.7885 15.7666 9.17227 15.4491 7.69167 14.8721L9.47028 13.4432C10.2934 14.0954 11.3419 14.4856 12.4826 14.4856C15.1197 14.4856 17.2699 12.3969 17.2699 9.80512C17.2699 9.01622 17.0702 8.27279 16.7177 7.62085ZM9.07479 9.80512C9.07479 7.97863 10.5937 6.48563 12.4826 6.48563C13.3885 6.48563 14.2106 6.82976 14.8203 7.38991L9.60311 11.5812C9.26826 11.0673 9.07479 10.4582 9.07479 9.80512ZM12.4826 13.1246C11.775 13.1246 11.1186 12.9147 10.5747 12.556L15.6186 8.50387C15.7935 8.90346 15.8903 9.3432 15.8903 9.80512C15.8903 11.6316 14.3714 13.1246 12.4826 13.1246Z" fill="#9A9999"/>
</svg>
