<svg width="32" height="34" viewBox="0 0 32 34" fill="none" xmlns="http://www.w3.org/2000/svg">
<path d="M27.4458 3.44764L27.7289 3.7024C30.2442 5.96646 31.7692 11.1298 30.7601 19.6241L30.76 19.6246C30.2889 23.6227 28.6103 25.7607 26.9666 26.9529C25.6093 27.9374 24.2787 28.29 23.4944 28.4977C23.3094 28.5468 23.1549 28.5877 23.0375 28.627C22.6311 28.7618 18.6528 29.7967 13.4598 29.3463L13.2004 29.3238L13.0332 29.5234C12.8519 29.7401 12.6798 29.9459 12.5164 30.1413C11.2452 31.6618 10.4986 32.5548 9.96211 33.0535C9.66339 33.3312 9.47862 33.4382 9.35074 33.478C9.24533 33.5108 9.13748 33.5112 8.94658 33.4494L8.94255 33.4481C8.7547 33.389 8.61287 33.1962 8.52773 32.8635C8.48871 32.7111 8.47092 32.5611 8.46333 32.447C8.4596 32.3908 8.45847 32.3454 8.45824 32.3154C8.45812 32.3004 8.45823 32.2894 8.45833 32.2829L8.45842 32.278L8.45843 32.2777L8.45844 32.2774L8.45846 32.2769L8.45846 32.2768L8.45847 32.2764L8.45875 32.269L8.45877 32.2601L8.46585 28.8362L8.46688 28.3352H8.03084C4.42134 27.2604 2.64248 24.799 1.7616 22.0377C0.86591 19.2299 0.910076 16.141 0.955536 13.927C1.04526 9.55832 1.86495 6.15969 4.07163 3.87143C5.29439 2.71388 7.10436 1.85417 9.2411 1.29202C11.3762 0.730303 13.8009 0.475448 16.2084 0.501857C18.6157 0.528264 20.9896 0.835729 23.0218 1.38823C24.8888 1.89581 26.4272 2.59929 27.4458 3.44764Z" fill="white" stroke="white"/>
<path d="M31.2566 19.6831C32.27 11.1524 30.7697 5.76671 28.0634 3.33077L28.0648 3.32936C23.6968 -0.830556 8.94532 -1.44626 3.7196 3.51619C1.37283 5.94364 0.546228 9.50624 0.455641 13.9167C0.365054 18.3285 0.257482 26.5932 7.95877 28.8352H7.96585L7.95877 32.2591C7.95877 32.2591 7.9064 33.6462 8.79245 33.925C9.80589 34.2534 10.2645 33.6094 13.4166 29.8444C18.6876 30.3016 22.7357 29.2542 23.1958 29.1013C24.2601 28.7446 30.2828 27.9477 31.2566 19.6831ZM13.9361 27.4353C13.9361 27.4353 10.5999 31.5953 9.56244 32.6752C9.22274 33.0262 8.85049 32.9937 8.85615 32.2973C8.85615 31.8401 8.88163 26.613 8.88163 26.613C2.3523 24.7418 2.7373 17.7043 2.80807 14.0228C2.87884 10.3399 3.55258 7.32367 5.53982 5.29254C10.1244 0.993918 23.057 1.95499 26.3521 5.05192C30.3804 8.62302 28.9466 18.7121 28.9551 19.0561C28.1271 25.9548 23.2467 26.3922 22.3493 26.6908C21.9658 26.8182 18.406 27.734 13.9361 27.4353Z" fill="#604FC9"/>
<path d="M15.7815 6.10059C15.2366 6.10059 15.2366 6.94984 15.7815 6.95691C20.0094 6.98947 23.4913 9.93637 23.5295 15.3419C23.5295 15.9123 24.3646 15.9052 24.3575 15.3348H24.3561C24.3108 9.51033 20.509 6.13314 15.7815 6.10059Z" fill="#604FC9"/>
<path d="M21.3432 14.4461C21.3305 15.0094 22.1642 15.0363 22.1712 14.4659C22.2406 11.2543 20.2604 8.60891 16.5393 8.33007C15.9943 8.29044 15.9377 9.14677 16.4813 9.1864C19.7084 9.43126 21.4083 11.6337 21.3432 14.4461Z" fill="#604FC9"/>
<path d="M20.451 18.0993C19.7518 17.6945 19.0399 17.9465 18.7455 18.3442L18.1298 19.1411C17.817 19.5459 17.2324 19.4921 17.2324 19.4921C12.9663 18.364 11.8255 13.8998 11.8255 13.8998C11.8255 13.8998 11.7731 13.2954 12.1638 12.9713L12.9338 12.3343C13.3188 12.0286 13.5622 11.2926 13.1701 10.5693C12.1227 8.6769 11.4193 8.02439 11.0612 7.52333C10.6847 7.052 10.1185 6.94584 9.52968 7.26431H9.51694C8.29261 7.98051 6.95221 9.32092 7.38108 10.7009C8.11285 12.156 9.4575 16.7943 13.7434 20.2989C15.7575 21.9564 18.945 23.6549 20.2982 24.0469L20.3109 24.0667C21.6442 24.5112 22.9408 23.1184 23.6329 21.8573V21.8474C23.9401 21.2373 23.8381 20.6598 23.3895 20.2819C22.594 19.5063 21.3937 18.6499 20.451 18.0993Z" fill="#604FC9"/>
<path d="M17.1226 11.4892C18.4829 11.5685 19.1424 12.279 19.2132 13.7383C19.2387 14.3087 20.0667 14.2691 20.0412 13.6987C19.9506 11.7935 18.957 10.7319 17.1679 10.6329C16.623 10.6003 16.572 11.4566 17.1226 11.4892Z" fill="#604FC9"/>
</svg>
